<svg xmlns="http://www.w3.org/2000/svg" viewBox="0 0 1100 900" font-family="-apple-system,Helvetica Neue,Arial,sans-serif">
<defs>
  <marker id="a" viewBox="0 0 10 7" refX="10" refY="3.5" markerWidth="8" markerHeight="6" orient="auto"><polygon points="0 0,10 3.5,0 7" fill="#555"/></marker>
  <marker id="ab" viewBox="0 0 10 7" refX="10" refY="3.5" markerWidth="8" markerHeight="6" orient="auto"><polygon points="0 0,10 3.5,0 7" fill="#2563eb"/></marker>
  <filter id="sh"><feDropShadow dx="0" dy="1" stdDeviation="2" flood-opacity="0.06"/></filter>
</defs>

<rect width="1100" height="900" fill="#fff"/>

<!-- Title -->
<text x="550" y="32" text-anchor="middle" font-size="20" font-weight="700" fill="#0f172a">Agentic Data · AWS ECS 部署架构图</text>

<!-- ════════ Internet / User ════════ -->
<rect x="440" y="50" width="220" height="40" rx="20" fill="#2563eb" filter="url(#sh)"/>
<text x="550" y="75" text-anchor="middle" font-size="13" font-weight="600" fill="#fff">Internet / 用户</text>

<line x1="550" y1="90" x2="550" y2="120" stroke="#555" stroke-width="1.5" marker-end="url(#a)"/>
<text x="565" y="110" font-size="9" fill="#94a3b8">HTTPS</text>

<!-- ════════ CloudFront ════════ -->
<rect x="440" y="123" width="220" height="36" rx="6" fill="#f5f3ff" stroke="#7c3aed" stroke-width="1.5" filter="url(#sh)"/>
<text x="550" y="146" text-anchor="middle" font-size="12" font-weight="500" fill="#4c1d95">CloudFront CDN (可选)</text>

<line x1="550" y1="159" x2="550" y2="190" stroke="#555" stroke-width="1.5" marker-end="url(#a)"/>

<!-- ════════ AWS Cloud Border ════════ -->
<rect x="50" y="180" width="1000" height="680" rx="12" fill="none" stroke="#f59e0b" stroke-width="2" stroke-dasharray="8"/>
<text x="70" y="200" font-size="11" font-weight="700" fill="#f59e0b">AWS Cloud</text>

<!-- ════════ VPC ════════ -->
<rect x="70" y="210" width="960" height="630" rx="10" fill="none" stroke="#334155" stroke-width="1.5"/>
<text x="90" y="230" font-size="11" font-weight="700" fill="#334155">VPC 10.0.0.0/16</text>

<!-- ════════ Public Subnets ════════ -->
<rect x="90" y="245" width="440" height="100" rx="8" fill="#ecfdf5" stroke="#059669" stroke-width="1"/>
<text x="110" y="263" font-size="10" font-weight="600" fill="#059669">Public Subnet · AZ-a</text>

<rect x="115" y="275" width="170" height="55" rx="6" fill="#fff" stroke="#059669" stroke-width="1" filter="url(#sh)"/>
<text x="200" y="296" text-anchor="middle" font-size="12" font-weight="600" fill="#065f46">ALB</text>
<text x="200" y="312" text-anchor="middle" font-size="9" fill="#94a3b8">Application Load Balancer</text>
<text x="200" y="324" text-anchor="middle" font-size="8" fill="#94a3b8">443 白名单 IP</text>

<rect x="310" y="275" width="130" height="55" rx="6" fill="#fff" stroke="#059669" stroke-width="1"/>
<text x="375" y="296" text-anchor="middle" font-size="11" font-weight="500" fill="#065f46">NAT Gateway</text>
<text x="375" y="312" text-anchor="middle" font-size="9" fill="#94a3b8">出站公网访问</text>

<rect x="550" y="245" width="460" height="100" rx="8" fill="#ecfdf5" stroke="#059669" stroke-width="1"/>
<text x="570" y="263" font-size="10" font-weight="600" fill="#059669">Public Subnet · AZ-b</text>

<rect x="575" y="275" width="170" height="55" rx="6" fill="#fff" stroke="#059669" stroke-width="1"/>
<text x="660" y="296" text-anchor="middle" font-size="12" font-weight="600" fill="#065f46">ALB Node</text>
<text x="660" y="312" text-anchor="middle" font-size="9" fill="#94a3b8">跨 AZ 高可用</text>

<rect x="770" y="275" width="130" height="55" rx="6" fill="#fff" stroke="#059669" stroke-width="1"/>
<text x="835" y="296" text-anchor="middle" font-size="11" font-weight="500" fill="#065f46">NAT Gateway</text>
<text x="835" y="312" text-anchor="middle" font-size="9" fill="#94a3b8">出站公网访问</text>

<!-- ALB → Target Group -->
<line x1="200" y1="330" x2="200" y2="370" stroke="#555" stroke-width="1.5" marker-end="url(#a)"/>

<!-- ════════ Private Subnets (App) ════════ -->
<rect x="90" y="375" width="440" height="120" rx="8" fill="#eff6ff" stroke="#2563eb" stroke-width="1"/>
<text x="110" y="393" font-size="10" font-weight="600" fill="#2563eb">Private Subnet · AZ-a</text>

<rect x="115" y="405" width="280" height="78" rx="8" fill="#fff" stroke="#2563eb" stroke-width="2" filter="url(#sh)"/>
<text x="255" y="428" text-anchor="middle" font-size="13" font-weight="700" fill="#1e40af">ECS Fargate Task</text>
<text x="255" y="445" text-anchor="middle" font-size="10" fill="#64748b">Agentic Data 容器 · Port 8501</text>
<text x="255" y="460" text-anchor="middle" font-size="9" fill="#64748b">FastAPI + React SPA + Strands SDK</text>
<text x="255" y="475" text-anchor="middle" font-size="9" fill="#2563eb">0.5 vCPU · 1 GB · Auto Scaling 1-4</text>

<rect x="420" y="405" width="90" height="78" rx="6" fill="#f8fafc" stroke="#94a3b8" stroke-width="1"/>
<text x="465" y="430" text-anchor="middle" font-size="10" font-weight="500" fill="#64748b">Target</text>
<text x="465" y="445" text-anchor="middle" font-size="10" font-weight="500" fill="#64748b">Group</text>
<text x="465" y="462" text-anchor="middle" font-size="8" fill="#94a3b8">Health: /</text>
<text x="465" y="474" text-anchor="middle" font-size="8" fill="#94a3b8">Timeout 120s</text>

<rect x="550" y="375" width="460" height="120" rx="8" fill="#eff6ff" stroke="#2563eb" stroke-width="1"/>
<text x="570" y="393" font-size="10" font-weight="600" fill="#2563eb">Private Subnet · AZ-b</text>

<rect x="575" y="405" width="280" height="78" rx="8" fill="#fff" stroke="#94a3b8" stroke-width="1.5" stroke-dasharray="4" filter="url(#sh)"/>
<text x="715" y="435" text-anchor="middle" font-size="12" font-weight="500" fill="#94a3b8">ECS Fargate Task (备份)</text>
<text x="715" y="455" text-anchor="middle" font-size="10" fill="#94a3b8">Auto Scaling 按需启动</text>

<!-- ALB → TG → Task arrows -->
<line x1="200" y1="370" x2="465" y2="405" stroke="#555" stroke-width="1" marker-end="url(#a)"/>
<line x1="465" y1="405" x2="255" y2="405" stroke="#2563eb" stroke-width="1.2" marker-end="url(#ab)"/>
<line x1="465" y1="420" x2="575" y2="440" stroke="#94a3b8" stroke-width="1" stroke-dasharray="3"/>

<!-- ════════ Private Subnet (Data) ════════ -->
<rect x="90" y="520" width="920" height="120" rx="8" fill="#fef2f2" stroke="#dc2626" stroke-width="1"/>
<text x="110" y="538" font-size="10" font-weight="600" fill="#dc2626">Private Subnet · Data Layer</text>

<rect x="115" y="550" width="155" height="75" rx="6" fill="#fff" stroke="#dc2626" stroke-width="1" filter="url(#sh)"/>
<text x="192" y="572" text-anchor="middle" font-size="12" font-weight="600" fill="#991b1b">RDS PostgreSQL</text>
<text x="192" y="588" text-anchor="middle" font-size="9" fill="#94a3b8">db.t4g.micro</text>
<text x="192" y="602" text-anchor="middle" font-size="9" fill="#94a3b8">产线·订单·质检</text>
<text x="192" y="616" text-anchor="middle" font-size="8" fill="#dc2626">SG: App→5432 only</text>

<rect x="295" y="550" width="155" height="75" rx="6" fill="#fff" stroke="#dc2626" stroke-width="1" filter="url(#sh)"/>
<text x="372" y="572" text-anchor="middle" font-size="12" font-weight="600" fill="#991b1b">DynamoDB</text>
<text x="372" y="588" text-anchor="middle" font-size="9" fill="#94a3b8">VPC Endpoint</text>
<text x="372" y="602" text-anchor="middle" font-size="9" fill="#94a3b8">配置·对话·成本·反馈</text>
<text x="372" y="616" text-anchor="middle" font-size="8" fill="#dc2626">5 张表</text>

<rect x="475" y="550" width="155" height="75" rx="6" fill="#fff" stroke="#dc2626" stroke-width="1" filter="url(#sh)"/>
<text x="552" y="572" text-anchor="middle" font-size="12" font-weight="600" fill="#991b1b">S3</text>
<text x="552" y="588" text-anchor="middle" font-size="9" fill="#94a3b8">VPC Endpoint</text>
<text x="552" y="602" text-anchor="middle" font-size="9" fill="#94a3b8">Parquet 数据 · 报告</text>
<text x="552" y="616" text-anchor="middle" font-size="8" fill="#94a3b8">Athena 查询结果</text>

<rect x="655" y="550" width="155" height="75" rx="6" fill="#fff" stroke="#dc2626" stroke-width="1" filter="url(#sh)"/>
<text x="732" y="572" text-anchor="middle" font-size="12" font-weight="600" fill="#991b1b">Athena</text>
<text x="732" y="588" text-anchor="middle" font-size="9" fill="#94a3b8">Serverless SQL</text>
<text x="732" y="602" text-anchor="middle" font-size="9" fill="#94a3b8">查询 S3 Parquet</text>
<text x="732" y="616" text-anchor="middle" font-size="8" fill="#94a3b8">+ Glue Catalog</text>

<rect x="835" y="550" width="155" height="75" rx="6" fill="#fff" stroke="#dc2626" stroke-width="1" filter="url(#sh)"/>
<text x="912" y="572" text-anchor="middle" font-size="12" font-weight="600" fill="#991b1b">Cognito</text>
<text x="912" y="588" text-anchor="middle" font-size="9" fill="#94a3b8">用户认证</text>
<text x="912" y="602" text-anchor="middle" font-size="9" fill="#94a3b8">admin/analyst/viewer</text>
<text x="912" y="616" text-anchor="middle" font-size="8" fill="#94a3b8">或 Local Auth</text>

<!-- Task → Data arrows -->
<line x1="192" y1="483" x2="192" y2="550" stroke="#555" stroke-width="1.2" marker-end="url(#a)"/>
<line x1="230" y1="483" x2="372" y2="550" stroke="#555" stroke-width="1.2" marker-end="url(#a)"/>
<line x1="280" y1="483" x2="552" y2="550" stroke="#555" stroke-width="1.2" marker-end="url(#a)"/>
<line x1="320" y1="483" x2="732" y2="550" stroke="#555" stroke-width="1.2" marker-end="url(#a)"/>
<line x1="360" y1="483" x2="912" y2="550" stroke="#555" stroke-width="1" stroke-dasharray="3"/>

<!-- ════════ AI Service (outside VPC via NAT) ════════ -->
<rect x="90" y="670" width="420" height="70" rx="8" fill="#f0f7ff" stroke="#2563eb" stroke-width="1.5" filter="url(#sh)"/>
<text x="110" y="690" font-size="10" font-weight="600" fill="#2563eb">AI 服务 (via NAT Gateway)</text>

<rect x="115" y="702" width="175" height="28" rx="4" fill="#dbeafe" stroke="#2563eb" stroke-width="1"/>
<text x="202" y="720" text-anchor="middle" font-size="10" font-weight="500" fill="#1e40af">Bedrock · Claude Sonnet/Haiku</text>

<rect x="305" y="702" width="175" height="28" rx="4" fill="#dbeafe" stroke="#2563eb" stroke-width="1"/>
<text x="392" y="720" text-anchor="middle" font-size="10" font-weight="500" fill="#1e40af">SiliconFlow · GLM-5 (CN)</text>

<!-- NAT → AI -->
<path d="M 375 330 L 460 330 L 460 360 L 460 670" fill="none" stroke="#2563eb" stroke-width="1" stroke-dasharray="4" marker-end="url(#ab)"/>
<text x="472" y="655" font-size="8" fill="#2563eb">via NAT</text>

<!-- ════════ Security / IAM ════════ -->
<rect x="550" y="670" width="460" height="70" rx="8" fill="#faf5ff" stroke="#7c3aed" stroke-width="1.5" filter="url(#sh)"/>
<text x="570" y="690" font-size="10" font-weight="600" fill="#7c3aed">安全 / 监控</text>

<rect x="575" y="702" width="100" height="28" rx="4" fill="#ede9fe" stroke="#7c3aed" stroke-width="1"/>
<text x="625" y="720" text-anchor="middle" font-size="10" font-weight="500" fill="#4c1d95">IAM Role</text>

<rect x="688" y="702" width="100" height="28" rx="4" fill="#ede9fe" stroke="#7c3aed" stroke-width="1"/>
<text x="738" y="720" text-anchor="middle" font-size="10" font-weight="500" fill="#4c1d95">SG (3组)</text>

<rect x="801" y="702" width="100" height="28" rx="4" fill="#ede9fe" stroke="#7c3aed" stroke-width="1"/>
<text x="851" y="720" text-anchor="middle" font-size="10" font-weight="500" fill="#4c1d95">CloudWatch</text>

<rect x="914" y="702" width="80" height="28" rx="4" fill="#ede9fe" stroke="#7c3aed" stroke-width="1"/>
<text x="954" y="720" text-anchor="middle" font-size="10" font-weight="500" fill="#4c1d95">ECR</text>

<!-- ════════ Legend ════════ -->
<rect x="90" y="770" width="920" height="70" rx="8" fill="#f8fafc" stroke="#e2e8f0" stroke-width="1"/>
<text x="110" y="792" font-size="10" font-weight="700" fill="#64748b">月费估算 (us-east-1)</text>
<text x="110" y="810" font-size="9" fill="#555">Fargate (0.5vCPU) ~$15</text>
<text x="260" y="810" font-size="9" fill="#555">ALB ~$22</text>
<text x="360" y="810" font-size="9" fill="#555">RDS ~$13</text>
<text x="460" y="810" font-size="9" fill="#555">DDB ~$5</text>
<text x="550" y="810" font-size="9" fill="#555">NAT ~$32</text>
<text x="650" y="810" font-size="9" fill="#555">S3+Athena ~$5</text>
<text x="790" y="810" font-size="9" fill="#555">CloudFront ~$2</text>
<text x="920" y="810" font-size="10" font-weight="700" fill="#dc2626">Total ~$94/月</text>

<text x="110" y="828" font-size="9" fill="#94a3b8">绿色=公网子网  蓝色=私有子网(App)  红色=数据层  紫色=安全/监控</text>
<line x1="630" y1="824" x2="660" y2="824" stroke="#555" stroke-width="1.5"/><text x="668" y="828" font-size="9" fill="#555">数据流</text>
<line x1="730" y1="824" x2="760" y2="824" stroke="#2563eb" stroke-width="1.5" stroke-dasharray="4"/><text x="768" y="828" font-size="9" fill="#555">公网出站 (NAT)</text>
<line x1="870" y1="824" x2="900" y2="824" stroke="#94a3b8" stroke-width="1" stroke-dasharray="3"/><text x="908" y="828" font-size="9" fill="#555">可选链路</text>
</svg>
